<?xml version="1.0" encoding="UTF-8"?>
<svg width="700pt" height="700pt" version="1.1" viewBox="0 0 700 700" xmlns="http://www.w3.org/2000/svg">
 <g>
  <path d="m589.57 134.4-29.574 29.75-97.477 98.523 97.477 97.648 35 35v-237.82c0-8.2266-1.9258-16.102-5.4258-23.102z"/>
  <path d="m558.77 408.45-121.1-120.93-50.398 50.926c-10.324 10.324-23.801 15.574-37.273 15.574-13.477 0-26.949-5.25-37.273-15.398l-50.75-50.926-121.27 119.7-25.898 25.551c9.4492 13.301 25.199 22.051 42.699 22.051h385c17.148 0 32.375-8.2266 41.824-21l-25.551-25.375v-0.17578z"/>
  <path d="m271.95 247.98h0.17578l4.5508 4.5508c0.17578 0.17578 0.17578 0.35156 0.35156 0.52344l60.551 60.727c6.8242 7 18.023 6.8242 24.852 0l63-63.352 109.38-110.43 29.75-30.102c-6.6484-3.1484-14.176-4.8984-22.051-4.8984h-385c-8.0508 0-15.75 1.9258-22.574 5.25l29.574 29.75z"/>
  <path d="m237.3 262.68-97.301-97.648-29.75-30.102c-3.3242 6.8242-5.25 14.523-5.25 22.574v235.9l35-34.648z"/>
 </g>
</svg>
